<svg version="1.1" id="grid" xmlns="http://www.w3.org/2000/svg" xmlns:xlink="http://www.w3.org/1999/xlink" x="0px" y="0px" viewBox="0 0 214 77" style="enable-background:new 0 0 214 77;" xml:space="preserve">
          <style type="text/css">
          	.st0{fill:#674BDE;}
          	.st1{fill:#4D38A5;}
          	.st2{fill:#0799AC;}
          	.st3{fill:#187C80;}
          	.st4{fill:#09CDE7;}
          	.st5{filter:url(#Adobe_OpacityMaskFilter);}
          	.st6{fill:url(#SVGID_2_);}
          	.st7{opacity:0.23;mask:url(#SVGID_1_);fill:url(#SVGID_3_);}
          	.st8{fill:#C9F1F6;}
          	.st9{fill:#DCD6F4;}
          	.st10{clip-path:url(#SVGID_7_);fill:url(#SVGID_8_);}
          	.st11{filter:url(#Adobe_OpacityMaskFilter_1_);}
          	.st12{clip-path:url(#SVGID_7_);fill:url(#SVGID_10_);stroke:#1D1D1B;stroke-width:0.9757;stroke-miterlimit:10;}
          	.st13{clip-path:url(#SVGID_7_);mask:url(#SVGID_9_);fill:url(#SVGID_11_);}
          	.st14{opacity:0.5;fill:#7F6A55;}
          	.st15{fill:#1D1D1B;}
          	.st16{fill:#7D6852;}
          	.st17{fill:#E03D3D;}
          	.st18{clip-path:url(#SVGID_13_);}
          	.st19{fill:none;}
          	.st20{fill:none;stroke:#09CDE7;stroke-width:20.4194;stroke-linecap:round;stroke-miterlimit:10;}
          	.st21{fill:none;stroke:#674BDE;stroke-width:20.4194;stroke-linecap:round;stroke-miterlimit:10;}
          	.st22{fill:#98E8F2;}
          	.st23{fill:#FFFFFF;}
          	.st24{fill:#3D3196;}
          	.st25{opacity:0.1;fill:#1D1D1B;}
          	.st26{opacity:0.1;}
          	.st27{fill:#373735;}
          	.st28{fill:none;stroke:#674BDE;stroke-width:1.0781;stroke-linecap:round;stroke-miterlimit:10;}
          	.st29{fill:none;stroke:#674BDE;stroke-width:1.2938;stroke-linecap:round;stroke-miterlimit:10;}
          	.st30{fill:none;stroke:#674BDE;stroke-width:1.0707;stroke-linecap:round;stroke-miterlimit:10;}
          	.st31{opacity:0.2;fill:#1D1D1B;}
          	.st32{fill:#806FE4;}
          	.st33{fill:none;stroke:#FFFFFF;stroke-width:6.4688;stroke-linecap:round;stroke-miterlimit:10;}
          	.st34{opacity:0.2;}
          	.st35{fill:#057780;}
          	.st36{fill:none;stroke:#9F8EE9;stroke-width:2.3621;stroke-linecap:round;stroke-miterlimit:10;}
          	.st37{fill:none;stroke:#9F8EE9;stroke-width:2.3621;stroke-linecap:round;stroke-miterlimit:10;stroke-dasharray:7.0935,11.8225;}
          	.st38{fill:#342672;}
          	.st39{fill:#1A1339;}
          	.st40{fill:#6BDFEF;}
          	.st41{fill:none;stroke:#674BDE;stroke-width:2.3883;stroke-linecap:round;stroke-miterlimit:10;}
          	.st42{fill:#3A2A80;}
          	.st43{fill:url(#SVGID_14_);}
          	.st44{fill:url(#SVGID_15_);}
          	.st45{fill:url(#SVGID_16_);}
          	.st46{fill:#F0F0F0;}
          	.st47{opacity:0.5;}
          	.st48{opacity:0.25;fill:#1A1339;}
          	.st49{clip-path:url(#SVGID_18_);}
          	.st50{fill:none;stroke:#FFFFFF;stroke-width:1.1495;stroke-linecap:round;stroke-miterlimit:10;}
          	.st51{fill:#056976;}
          	.st52{fill:#B1A4ED;}
          	.st53{fill:#3AD6EB;}
          	.st54{fill:none;stroke:#9F8EE9;stroke-width:1.7304;stroke-linecap:round;stroke-miterlimit:10;stroke-dasharray:5.1912,8.6519;}
          	.st55{fill:url(#SVGID_19_);}
          	.st56{opacity:0.5;fill:#FFFFFF;}
          	.st57{fill:url(#SVGID_22_);}
          	.st58{fill:url(#SVGID_23_);}
          	.st59{fill:none;stroke:#674BDE;stroke-miterlimit:10;}
          	.st60{fill:url(#SVGID_24_);}
          	.st61{fill:url(#SVGID_29_);}
          	.st62{fill:url(#SVGID_30_);}
          	.st63{fill:url(#SVGID_33_);}
          	.st64{fill:url(#SVGID_34_);}
          	.st65{fill:url(#SVGID_35_);}
          	.st66{fill:url(#SVGID_42_);}
          	.st67{filter:url(#Adobe_OpacityMaskFilter_2_);}
          	.st68{fill:url(#SVGID_44_);stroke:#1D1D1B;stroke-width:0.9757;stroke-miterlimit:10;}
          	.st69{mask:url(#SVGID_43_);fill:url(#SVGID_45_);}
          	.st70{fill:url(#SVGID_46_);}
          	.st71{fill:url(#SVGID_47_);}
          	.st72{clip-path:url(#SVGID_49_);}
          	.st73{fill:none;stroke:#674BDE;stroke-width:3;stroke-miterlimit:10;}
          	.st74{fill:none;stroke:#674BDE;stroke-width:0.8089;stroke-linecap:round;stroke-miterlimit:10;}
          	.st75{fill:none;stroke:#674BDE;stroke-width:0.9707;stroke-linecap:round;stroke-miterlimit:10;}
          	.st76{fill:none;stroke:#674BDE;stroke-width:0.8033;stroke-linecap:round;stroke-miterlimit:10;}
          	.st77{fill:none;stroke:#FFFFFF;stroke-width:4.8536;stroke-linecap:round;stroke-miterlimit:10;}
          	.st78{fill:none;stroke:#9F8EE9;stroke-width:1.7184;stroke-linecap:round;stroke-miterlimit:10;}
          	.st79{fill:none;stroke:#9F8EE9;stroke-width:1.7184;stroke-linecap:round;stroke-miterlimit:10;stroke-dasharray:5.1601,8.6002;}
          	.st80{fill:none;stroke:#674BDE;stroke-width:1.7374;stroke-linecap:round;stroke-miterlimit:10;}
          	.st81{fill:none;stroke:#BDB2EF;stroke-miterlimit:10;}
          	.st82{fill:none;stroke:#9F8EE9;stroke-width:1.2056;stroke-linecap:round;stroke-miterlimit:10;stroke-dasharray:3.6169,6.0282;}
          	.st83{fill:url(#SVGID_50_);}
          	.st84{fill:url(#SVGID_51_);}
          	.st85{clip-path:url(#SVGID_53_);}
          	.st86{fill:none;stroke:#FFFFFF;stroke-width:3;stroke-miterlimit:10;}
          	.st87{fill:#E3DEF6;}
          	.st88{fill:url(#SVGID_54_);}
          	.st89{opacity:0.56;fill:url(#SVGID_55_);}
          	.st90{opacity:0.56;fill:url(#SVGID_56_);}
          	.st91{opacity:0.56;fill:url(#SVGID_57_);}
          	.st92{opacity:0.56;fill:url(#SVGID_64_);}
          	.st93{opacity:0.56;fill:url(#SVGID_65_);}
          	.st94{opacity:0.56;fill:url(#SVGID_66_);}
          	.st95{fill:#E7E7E7;}
          	.st96{fill:url(#SVGID_67_);}
          	.st97{fill:url(#SVGID_68_);}
          	.st98{fill:none;stroke:#FFFFFF;stroke-miterlimit:10;}
          	.st99{fill:none;stroke:#C1C1C0;stroke-miterlimit:10;}
          	.st100{fill:none;stroke:#09CDE7;stroke-miterlimit:10;}
          	.st101{fill:url(#SVGID_85_);}
          	.st102{clip-path:url(#SVGID_101_);}
          	.st103{fill:url(#SVGID_102_);}
          	.st104{filter:url(#Adobe_OpacityMaskFilter_3_);}
          	.st105{fill:url(#SVGID_104_);stroke:#1D1D1B;stroke-width:0.5657;stroke-miterlimit:10;}
          	.st106{mask:url(#SVGID_103_);fill:url(#SVGID_105_);}
          	.st107{fill:url(#SVGID_106_);}
          	.st108{fill:url(#SVGID_107_);}
          	.st109{clip-path:url(#SVGID_109_);}
          	.st110{fill:none;stroke:#FFFFFF;stroke-width:0.6665;stroke-linecap:round;stroke-miterlimit:10;}
          	.st111{fill:url(#SVGID_110_);}
          	.st112{clip-path:url(#SVGID_126_);}
          	.st113{fill:none;stroke:#674BDE;stroke-width:0.469;stroke-linecap:round;stroke-miterlimit:10;}
          	.st114{fill:none;stroke:#674BDE;stroke-width:0.5628;stroke-linecap:round;stroke-miterlimit:10;}
          	.st115{fill:none;stroke:#674BDE;stroke-width:0.4658;stroke-linecap:round;stroke-miterlimit:10;}
          	.st116{fill:none;stroke:#FFFFFF;stroke-width:2.8141;stroke-linecap:round;stroke-miterlimit:10;}
          	.st117{fill:none;stroke:#BDB2EF;stroke-width:0.5798;stroke-miterlimit:10;}
          	.st118{fill:none;stroke:#9F8EE9;stroke-width:0.699;stroke-linecap:round;stroke-miterlimit:10;stroke-dasharray:2.0971,3.4951;}
          	.st119{clip-path:url(#SVGID_142_);}
          	.st120{fill:url(#SVGID_143_);}
          	.st121{fill:url(#SVGID_144_);}
          	.st122{clip-path:url(#SVGID_146_);}
          	.st123{fill:none;stroke:#FFFFFF;stroke-width:1.7394;stroke-miterlimit:10;}
          	.st124{fill:#D5D6D9;}
          	.st125{fill:#F7F7F7;}
          	.st126{fill:url(#SVGID_147_);}
          	.st127{fill:#BCBCBC;}
          	.st128{fill:url(#SVGID_148_);}
          	.st129{fill:#3C3E42;}
          	.st130{filter:url(#Adobe_OpacityMaskFilter_4_);}
          	.st131{clip-path:url(#SVGID_150_);fill:url(#SVGID_152_);stroke:#1D1D1B;stroke-width:0.4331;stroke-miterlimit:10;}
          	.st132{clip-path:url(#SVGID_150_);mask:url(#SVGID_151_);fill:url(#SVGID_153_);}
          	.st133{fill:url(#SVGID_154_);}
          	.st134{fill:url(#SVGID_155_);}
          	.st135{fill:url(#SVGID_156_);}
          	.st136{clip-path:url(#SVGID_158_);}
          	.st137{fill:none;stroke:#FFFFFF;stroke-width:0.3836;stroke-linecap:round;stroke-miterlimit:10;}
          	.st138{fill:url(#SVGID_159_);}
          	.st139{fill:none;stroke:#674BDE;stroke-width:0.3711;stroke-linecap:round;stroke-miterlimit:10;}
          	.st140{fill:none;stroke:#674BDE;stroke-width:0.4454;stroke-linecap:round;stroke-miterlimit:10;}
          	.st141{fill:none;stroke:#674BDE;stroke-width:0.3686;stroke-linecap:round;stroke-miterlimit:10;}
          	.st142{fill:none;stroke:#FFFFFF;stroke-width:2.2268;stroke-linecap:round;stroke-miterlimit:10;}
          	.st143{fill:none;stroke:#BDB2EF;stroke-width:0.4715;stroke-miterlimit:10;}
          	.st144{clip-path:url(#SVGID_161_);}
          	.st145{fill:none;stroke:#9F8EE9;stroke-width:0.5276;stroke-linecap:round;stroke-miterlimit:10;stroke-dasharray:1.5829,2.6381;}
          	.st146{fill:url(#SVGID_162_);}
          	.st147{fill:none;stroke:#FFFFFF;stroke-width:1.6174;stroke-miterlimit:10;}
          	.st148{clip-path:url(#SVGID_164_);}
          	.st149{fill:#382A87;}
          	.st150{fill:#0A5454;}
          	.st151{fill:url(#SVGID_165_);}
          </style>
          <g>
          	<g>
          		<g>
          			<g>
          				<path class="st15" d="M14.9,18.3c-0.5-0.5-0.8-1.1-0.8-1.8c0-0.7,0.3-1.2,0.8-1.7c0.5-0.5,1.2-0.7,1.9-0.7
          					c0.8,0,1.4,0.2,1.9,0.7c0.5,0.5,0.8,1,0.8,1.7c0,0.7-0.3,1.3-0.8,1.8c-0.5,0.5-1.1,0.8-1.9,0.8C16.1,19.1,15.5,18.8,14.9,18.3z
          					 M15.7,65.2V28.4c0-0.4,0.2-0.6,0.6-0.6h1.1c0.4,0,0.6,0.2,0.6,0.6v36.8c0,0.4-0.2,0.6-0.6,0.6h-1.1
          					C15.9,65.8,15.7,65.6,15.7,65.2z"></path>
          			</g>
          			<g>
          				<path class="st15" d="M57.3,12.7h1.1c0.4,0,0.6,0.2,0.6,0.6v51.9c0,0.4-0.2,0.6-0.6,0.6h-1.1c-0.4,0-0.6-0.2-0.6-0.6v-4.9
          					c0-0.1,0-0.2-0.1-0.2c-0.1,0-0.1,0-0.2,0.1c-1.1,1.9-2.6,3.4-4.5,4.5c-1.9,1.1-4.1,1.6-6.6,1.6c-3.4,0-6.2-0.9-8.6-2.7
          					c-2.3-1.8-3.9-4.2-4.6-7.3c-0.3-1.1-0.4-2.3-0.5-3.6c-0.1-1.3-0.1-3.3-0.1-5.8c0-2.6,0-4.6,0.1-6c0.1-1.4,0.2-2.6,0.5-3.7
          					c0.7-3,2.2-5.4,4.6-7.2c2.4-1.8,5.3-2.8,8.6-2.8c2.5,0,4.7,0.5,6.6,1.6c1.9,1.1,3.4,2.6,4.5,4.6c0,0.1,0.1,0.1,0.2,0.1
          					c0,0,0.1-0.1,0.1-0.2v-20C56.7,12.9,56.9,12.7,57.3,12.7z M56.6,52.8c0.1-1,0.1-3,0.1-6c0-2.9,0-4.9-0.1-6c-0.1-1-0.2-2-0.4-2.9
          					c-0.5-2.5-1.6-4.5-3.5-6.2c-1.9-1.6-4.2-2.5-7.1-2.5c-2.9,0-5.3,0.8-7.4,2.5c-2,1.6-3.3,3.7-3.8,6.2c-0.2,0.9-0.3,1.8-0.4,2.8
          					c-0.1,1-0.1,3-0.1,6c0,2.9,0,4.8,0.1,5.9c0.1,1,0.2,2,0.3,3c0.4,2.5,1.6,4.6,3.7,6.2c2.1,1.6,4.6,2.4,7.5,2.4
          					c2.9,0,5.2-0.8,7.1-2.5c1.8-1.6,3-3.7,3.5-6.2C56.4,54.8,56.5,53.8,56.6,52.8z"></path>
          			</g>
          			<g>
          				<path class="st15" d="M93.4,62.4c2-1.3,3.4-3,4.2-5.1l0.2-0.3c0.1-0.2,0.2-0.2,0.4-0.2h0.4l0.8,0.2c0.4,0.1,0.5,0.4,0.4,0.8
          					c-1,2.6-2.6,4.7-5,6.3c-2.4,1.6-5.1,2.4-8.4,2.4c-3.4,0-6.3-0.9-8.7-2.7c-2.4-1.8-3.9-4.2-4.7-7.2c-0.3-1.2-0.5-2.4-0.6-3.8
          					c-0.1-1.4-0.1-3.4-0.1-6c0-2.4,0-4.3,0.1-5.7c0.1-1.4,0.2-2.6,0.5-3.8c0.7-3,2.3-5.5,4.7-7.3c2.4-1.8,5.3-2.8,8.8-2.8
          					c3.6,0,6.7,0.9,9.1,2.8c2.4,1.9,4,4.4,4.6,7.6c0.2,0.9,0.3,2.1,0.4,3.5c0,1.4,0.1,3.2,0.1,5.6c0,0.4-0.2,0.6-0.6,0.6H74.7
          					c-0.2,0-0.2,0.1-0.2,0.2c0,1.8,0,3.3,0.1,4.7c0,1.4,0.2,2.4,0.3,3.1c0.5,2.7,1.8,4.8,3.8,6.5c2,1.6,4.6,2.5,7.7,2.5
          					C89.1,64.3,91.4,63.7,93.4,62.4z M78.6,31.8c-2,1.6-3.3,3.8-3.8,6.4c-0.3,1.2-0.4,3.5-0.4,6.9c0,0.2,0.1,0.2,0.2,0.2h23.3
          					c0.2,0,0.2-0.1,0.2-0.2c0-3.4-0.1-5.7-0.4-6.8c-0.6-2.7-1.9-4.8-3.9-6.5c-2-1.6-4.6-2.5-7.6-2.5C83.2,29.3,80.6,30.2,78.6,31.8z
          					"></path>
          			</g>
          			<g>
          				<path class="st15" d="M136.5,30.8c2.4,2.4,3.6,5.4,3.6,9.2v25.2c0,0.4-0.2,0.6-0.6,0.6h-1.1c-0.4,0-0.6-0.2-0.6-0.6V40.4
          					c0-3.2-1-5.9-3-7.9c-2-2-4.6-3.1-7.8-3.1c-3.4,0-6.1,1-8.2,3c-2.1,2-3.1,4.6-3.1,7.8v25c0,0.4-0.2,0.6-0.6,0.6H114
          					c-0.4,0-0.6-0.2-0.6-0.6V28.4c0-0.4,0.2-0.6,0.6-0.6h1.1c0.4,0,0.6,0.2,0.6,0.6V33c0,0.1,0,0.2,0.1,0.2c0,0.1,0.1,0,0.2-0.1
          					c1.1-1.9,2.6-3.3,4.6-4.3c1.9-1,4.2-1.5,6.8-1.5C131.1,27.3,134.2,28.5,136.5,30.8z"></path>
          			</g>
          		</g>
          	</g>
          	<linearGradient id="SVGID_1_" gradientUnits="userSpaceOnUse" x1="194.2343" y1="58.916" x2="157.4035" y2="11.5682">
          		<stop offset="0" style="stop-color:#09CDE7"></stop>
          		<stop offset="1" style="stop-color:#674BDE"></stop>
          	</linearGradient>
          	<path style="fill:url(#SVGID_1_);" d="M177,69.5c-12.6,0-22.8-10.2-22.8-22.8c0-3.2,2.6-5.8,5.8-5.8c3.2,0,5.8,2.6,5.8,5.8
          		c0,6.2,5.1,11.3,11.3,11.3s11.3-5,11.3-11.3c0-4.6-2.8-8.7-7-10.4c-3-1.2-4.4-4.6-3.2-7.5c1.2-3,4.6-4.4,7.5-3.2
          		c8.6,3.5,14.2,11.8,14.2,21.1C199.9,59.3,189.6,69.5,177,69.5z M193.8,13.3c0-3.2-2.6-5.8-5.8-5.8h-28c-3.2,0-5.8,2.6-5.8,5.8
          		s2.6,5.8,5.8,5.8h28C191.2,19,193.8,16.4,193.8,13.3z"></path>
          </g>
          </svg>