<?xml version="1.0" encoding="utf-8"?>
<!-- Generator: Adobe Illustrator 19.0.0, SVG Export Plug-In . SVG Version: 6.00 Build 0)  -->
<svg version="1.1" id="Layer_1" xmlns="http://www.w3.org/2000/svg" xmlns:xlink="http://www.w3.org/1999/xlink" x="0px" y="0px"
	 viewBox="0 0 500 500" style="enable-background:new 0 0 500 500;" xml:space="preserve">
<style type="text/css">
	.st0{fill:#284FFF;}
	.st1{fill:#FF495C;}
	.st2{fill:#F5F4F3;}
</style>
<g id="XMLID_1_">
	<rect id="XMLID_2_" x="67.5" y="208.1" class="st0" width="365" height="83.8"/>
	<polygon id="XMLID_3_" class="st1" points="148.5,237.9 148.4,226.9 113.7,262.2 113.7,273.1 	"/>
	<polygon id="XMLID_4_" class="st2" points="148.4,226.9 148.4,238 160.7,250.1 148.8,262.1 113.7,227 90.6,250.1 113.7,273.1 
		113.7,262.1 101.7,250.1 113.7,238 148.9,273.1 171.8,250 	"/>
	<polygon id="XMLID_5_" class="st2" points="196.4,238.8 202.4,238.8 202.4,256.3 212.1,256.3 212.1,261.4 196.4,261.4 	"/>
	<path id="XMLID_6_" class="st2" d="M273.4,257.5l4.4-3.3c1.1,1.4,2.5,2.5,4.7,2.5c1.8,0,2.9-0.5,2.9-1.8c0-1-0.7-1.4-2.2-1.9
		l-2.7-0.9c-3.3-1.1-5.6-3.1-5.6-6.8c0-4.5,3.7-6.8,7.7-6.8c4,0,6.2,1.4,7.5,3l-3.5,3.6c-0.9-1-1.9-1.6-3.7-1.6
		c-1.5,0-2.2,0.7-2.2,1.6c0,0.9,0.5,1.3,1.6,1.7l3,1c4.5,1.5,6.1,3.7,6.1,6.9c0,4.2-2.6,7.2-8.6,7.2
		C277.7,261.7,274.8,259.4,273.4,257.5z"/>
	<path id="XMLID_7_" class="st2" d="M316.2,261.4h-5.9l11-23c0.1-0.2,0.3-0.2,0.4,0l11,23h-6.3l-0.9-1.9H317L316.2,261.4z
		 M321.2,249.7l-2.3,5.3h4.6L321.2,249.7z"/>
	<path id="XMLID_10_" class="st2" d="M357.3,250.1v11.3h-5.7v-23c0-0.2,0.1-0.4,0.5-0.1l14.2,11.7v-11.4h5.7v23
		c0,0.3-0.1,0.4-0.5,0.1L357.3,250.1z"/>
	<polygon id="XMLID_11_" class="st2" points="397.3,243.8 391.3,243.8 391.3,238.8 409.4,238.8 409.4,243.8 403.4,243.8 
		403.4,261.4 397.3,261.4 397.3,243.8 	"/>
	<path id="XMLID_12_" class="st2" d="M242.6,238.5c-6.4,0-11.7,5.2-11.6,11.7c0,6.4,5.2,11.7,11.7,11.6c6.4,0,11.7-5.2,11.6-11.7v0
		C254.2,243.7,249,238.5,242.6,238.5z M242.6,256.3c-3.4,0-6.2-2.8-6.2-6.2c0-3.4,2.8-6.2,6.2-6.2c3.4,0,6.2,2.8,6.2,6.2
		C248.8,253.6,246,256.3,242.6,256.3L242.6,256.3z"/>
</g>
</svg>
