<svg width="176" height="45" viewBox="0 0 176 45" xmlns="http://www.w3.org/2000/svg" role="img"><title>Shareup</title><g transform="translate(-198.000000, -2867.000000)" fill="#000" fill-rule="nonzero"><path d="M211.99776 2902.0236C214.770808 2902.0236 217.141765 2901.60487 219.110629 2900.76741 221.079494 2899.92995 222.588032 2898.74863 223.636244 2897.22345 224.684457 2895.69828 225.214109 2893.89302 225.225201 2891.80769 225.214109 2890.38789 224.956215 2889.12893 224.45152 2888.0308 223.946826 2886.93267 223.239698 2885.97874 222.330138 2885.16901 221.420579 2884.35928 220.344636 2883.67711 219.10231 2883.1225 217.859984 2882.56789 216.495645 2882.12421 215.009291 2881.79144L211.947845 2881.05936C211.204668 2880.89297 210.50586 2880.69054 209.851421 2880.45206 209.196981 2880.21358 208.620187 2879.93072 208.121038 2879.60351 207.62189 2879.27629 207.23089 2878.88529 206.948039 2878.43051S206.534855 2877.4433 206.557039 2876.83323C206.557039 2876.10114 206.770564 2875.44671 207.197613 2874.86991 207.624663 2874.29312 208.243053 2873.84111 209.052783 2873.51389 209.862513 2873.18667 210.855264 2873.02306 212.031037 2873.02306 213.761419 2873.02306 215.131305 2873.39465 216.140694 2874.13783 217.150084 2874.881 217.721332 2875.92367 217.854438 2877.26583H224.759329C224.726052 2875.23595 224.182535 2873.45011 223.128776 2871.9083 222.075018 2870.36648 220.602529 2869.16298 218.71131 2868.29779S214.609972 2867 212.080952 2867C209.5963 2867 207.377861 2867.4326 205.425635 2868.29779S201.939913 2870.36648 200.825148 2871.9083C199.710383 2873.45011 199.158546 2875.25259 199.169638 2877.31574 199.158546 2879.83367 199.984914 2881.83581 201.648743 2883.32216 203.312572 2884.80852 205.580926 2885.9011 208.453804 2886.59991L212.164143 2887.53165C213.406469 2887.83114 214.457454 2888.16391 215.317099 2888.52995S216.831183 2889.33968 217.280417 2889.86101 217.954268 2891.02569 217.954268 2891.79105C217.954268 2892.61188 217.704694 2893.33841 217.205545 2893.97067 216.706396 2894.60292 216.004815 2895.09653 215.100801 2895.45148 214.196787 2895.80643 213.13471 2895.9839 211.914569 2895.9839 210.672243 2895.9839 209.560251 2895.79256 208.578591 2895.40988 207.596932 2895.0272 206.814933 2894.45595 206.232592 2893.69614 205.650252 2892.93632 205.320259 2891.98517 205.242614 2890.84267H198.27117C198.326631 2893.29405 198.922837 2895.34887 200.059787 2897.00716 201.196737 2898.66544 202.78292 2899.91608 204.818338 2900.75909 206.853755 2901.6021 209.246896 2902.0236 211.99776 2902.0236zM234.830561 2901.54941V2886.77461C234.841653 2885.67648 235.055177 2884.73642 235.471135 2883.95442 235.887092 2883.17242 236.463886 2882.57621 237.201517 2882.1658 237.939148 2881.75539 238.790474 2881.55019 239.755495 2881.55019 241.19748 2881.55019 242.320564 2881.98833 243.124748 2882.86461 243.928932 2883.74089 244.325478 2884.96658 244.314386 2886.54167V2901.54941H251.402298V2885.08482C251.389564 2883.17012 251.026326 2881.51771 250.31249 2880.12761 249.574859 2878.69117 248.543285 2877.5875 247.217768 2876.81659 245.892251 2876.04568 244.342117 2875.66023 242.567366 2875.66023 240.626232 2875.66023 239.012318 2876.09005 237.725623 2876.9497 236.438929 2877.80934 235.507184 2878.99343 234.93039 2880.50197H234.630901V2867.47419H227.742649V2901.54941H234.830561zM262.722171 2902.05795C263.986681 2902.05795 265.101447 2901.8888 266.066468 2901.55049 267.031489 2901.21218 267.857857 2900.74076 268.545573 2900.13623 269.233289 2899.53171 269.782353 2898.83013 270.192764 2898.03149H270.392423V2901.57544H277.114293V2884.33818C277.114293 2882.81855 276.82035 2881.51244 276.232463 2880.41986 275.644577 2879.32728 274.843166 2878.43158 273.82823 2877.73277 272.813295 2877.03397 271.65416 2876.51818 270.350828 2876.18541 269.047495 2875.85265 267.685928 2875.68626 266.266127 2875.68626 264.225164 2875.68626 262.431001 2875.99407 260.88364 2876.60969 259.336279 2877.22531 258.074542 2878.10159 257.098429 2879.23854 256.122316 2880.37549 255.467877 2881.72042 255.135111 2883.27333L261.690597 2883.80575C261.934626 2882.96274 262.433774 2882.26116 263.188044 2881.70101 263.942313 2881.14085 264.957248 2880.86077 266.232851 2880.86077 267.4419 2880.86077 268.376417 2881.14917 269.036403 2881.72596 269.696388 2882.30276 270.026381 2883.11803 270.026381 2884.17179V2884.27162C270.026381 2884.81514 269.821175 2885.22555 269.410764 2885.50286 269.000353 2885.78016 268.340367 2885.98814 267.430808 2886.12679 266.521248 2886.26544 265.323291 2886.41242 263.836937 2886.56771 262.572427 2886.68972 261.366151 2886.90047 260.218109 2887.19996 259.070067 2887.49945 258.046812 2887.94314 257.148344 2888.53102 256.249876 2889.11891 255.539976 2889.89536 255.018643 2890.86039 254.49731 2891.82541 254.236643 2893.01782 254.236643 2894.43762 254.236643 2896.12363 254.605459 2897.52957 255.34309 2898.65542 256.08072 2899.78128 257.087337 2900.62984 258.362939 2901.20108 259.638542 2901.77233 261.091619 2902.05795 262.722171 2902.05795zM293.859789 2875.60575C294.547505 2875.60575 295.185306 2875.68894 295.773192 2875.85532 296.227071 2875.98378 296.645118 2876.13297 297.615852 2876.56836 295.979507 2878.0125 294.643237 2879.81278 293.716382 2881.85235 293.440886 2881.79898 293.182982 2881.79519 292.811576 2881.79519 291.857648 2881.79519 290.992457 2882.01981 290.216003 2882.46904 289.43955 2882.91828 288.823933 2883.53667 288.369153 2884.32421 287.914373 2885.11176 287.681437 2886.02687 287.670345 2887.06953V2901.52821H280.582433V2875.97179H287.454047V2880.43085H287.72026C288.186132 2878.84467 288.968131 2877.64394 290.066259 2876.82866 291.164386 2876.01339 292.428896 2875.60575 293.859789 2875.60575zM270.728561 2889.77165V2892.4837C270.728561 2893.38216 270.501171 2894.18635 270.046391 2894.89625 269.591611 2895.60615 268.964902 2896.16908 268.166264 2896.58503 267.367626 2897.00099 266.446974 2897.20897 265.404308 2897.20897 264.317273 2897.20897 263.421578 2896.95662 262.717224 2896.45193 262.012869 2895.94723 261.660692 2895.21237 261.660692 2894.24735 261.660692 2893.58182 261.832621 2893.02444 262.176479 2892.57521 262.520337 2892.12597 263.002848 2891.76825 263.62401 2891.50204 264.245173 2891.23582 264.971712 2891.04171 265.803627 2890.9197 266.191853 2890.86423 266.624449 2890.80045 267.101413 2890.72836 267.578378 2890.65626 268.055342 2890.57306 268.532306 2890.47878 269.00927 2890.3845 269.439093 2890.27912 269.821774 2890.16265 270.127918 2890.06948 270.382595 2889.96743 270.585804 2889.85651L270.728561 2889.77165zM307.195639 2902.05795C309.303156 2902.05795 311.163872 2901.73351 312.777786 2901.08461 314.3917 2900.43572 315.711671 2899.52616 316.737699 2898.35594 317.763727 2897.18571 318.443124 2895.81305 318.775889 2894.23796L312.220403 2893.80536C311.976375 2894.44871 311.621425 2894.99223 311.155552 2895.43592 310.68968 2895.8796 310.129525 2896.21237 309.475085 2896.43421 308.820646 2896.65606 308.099653 2896.76698 307.312107 2896.76698 306.125243 2896.76698 305.099215 2896.5174 304.234024 2896.01826 303.368833 2895.51911 302.700528 2894.80921 302.22911 2893.88855 301.757691 2892.9679 301.521982 2891.87532 301.521982 2890.61081L301.521746 2890.59428 318.925634 2890.59417V2888.64749C318.925634 2886.47342 318.620599 2884.57388 318.010528 2882.94888 317.400457 2881.32387 316.549132 2879.9734 315.456551 2878.89745 314.363969 2877.82151 313.088367 2877.01455 311.629744 2876.47658 310.17112 2875.93861 308.598802 2875.66963 306.912788 2875.66963 304.405953 2875.66963 302.223564 2876.22424 300.365621 2877.33346 298.507679 2878.44267 297.068467 2879.99004 296.047985 2881.97554 295.027503 2883.96104 294.517262 2886.26822 294.517262 2888.89707 294.517262 2891.59247 295.027503 2893.9246 296.047985 2895.89347 297.068467 2897.86233 298.524317 2899.38196 300.415536 2900.45236 302.306755 2901.52276 304.566789 2902.05795 307.195639 2902.05795zM301.832636 2886.15271C301.88186 2885.25522 302.117223 2884.43264 302.538726 2883.68498 303.004598 2882.85861 303.650719 2882.19862 304.477087 2881.70502 305.303455 2881.21142 306.254611 2880.96462 307.330554 2880.96462 308.362128 2880.96462 309.268915 2881.18923 310.050914 2881.63847 310.832914 2882.0877 311.445758 2882.70609 311.889445 2883.49364 312.333133 2884.28118 312.554977 2885.18519 312.554977 2886.20568L301.830209 2886.20592 301.832636 2886.15271zM330.196254 2901.80838C332.115204 2901.80838 333.742983 2901.3536 335.079593 2900.44404 336.416202 2899.53448 337.372904 2898.33098 337.949698 2896.83353H338.21591V2901.47561H345.020971V2875.9192H337.933059V2890.59417C337.944152 2891.73667 337.719535 2892.69614 337.259209 2893.4726 336.798883 2894.24905 336.197131 2894.83416 335.453954 2895.22794 334.710777 2895.62171 333.912139 2895.8186 333.05804 2895.8186 331.715885 2895.8186 330.645488 2895.38045 329.84685 2894.50417 329.048212 2893.62789 328.643347 2892.43548 328.632255 2890.92694V2875.9192H321.544343V2892.19145C321.555436 2894.18804 321.924251 2895.90179 322.65079 2897.33268 323.377328 2898.76357 324.389491 2899.86725 325.687278 2900.6437 326.985064 2901.42015 328.488057 2901.80838 330.196254 2901.80838zM355.434923 2911.07858V2897.40191H355.651221C355.972894 2898.11181 356.438767 2898.81339 357.048837 2899.50665 357.658908 2900.19992 358.443681 2900.77394 359.403155 2901.22872 360.36263 2901.6835 361.530083 2901.91089 362.905515 2901.91089 364.846649 2901.91089 366.601989 2901.40896 368.171534 2900.40512 369.74108 2899.40128 370.983406 2897.92047 371.898511 2895.9627 372.813617 2894.00493 373.27117 2891.60069 373.27117 2888.75 373.27117 2885.82166 372.799752 2883.38415 371.856916 2881.43747 370.914079 2879.49079 369.655115 2878.03217 368.080024 2877.0616 366.504932 2876.09103 364.785642 2875.60575 362.922154 2875.60575 361.491261 2875.60575 360.296077 2875.847 359.336602 2876.32952 358.377127 2876.81203 357.600674 2877.411 357.007242 2878.12645 356.413809 2878.8419 355.961802 2879.54348 355.651221 2880.23119H355.335093V2875.93852H348.347011V2911.07858H355.434923zM361.759784 2896.34163C360.617288 2896.34163 359.646721 2896.02827 358.848083 2895.40156 358.049445 2894.77485 357.439374 2893.8958 357.017871 2892.76439 356.596368 2891.63299 356.385616 2890.30747 356.385616 2888.78784 356.385616 2887.26821 356.596368 2885.94824 357.017871 2884.82793 357.439374 2883.70762 358.046672 2882.84243 358.839764 2882.23235 359.632856 2881.62228 360.606196 2881.31725 361.759784 2881.31725 362.924464 2881.31725 363.906123 2881.63338 364.704761 2882.26563 365.503399 2882.89789 366.107924 2883.77417 366.518335 2884.89448 366.928746 2886.01479 367.133952 2887.31258 367.133952 2888.78784 367.133952 2890.2742 366.925973 2891.58585 366.510016 2892.7228 366.094058 2893.85975 365.486761 2894.74712 364.688123 2895.38492 363.889485 2896.02272 362.913372 2896.34163 361.759784 2896.34163z"></path></g></svg>